<?xml version="1.0" standalone="no"?>
<!DOCTYPE svg PUBLIC "-//W3C//DTD SVG 20010904//EN"
 "http://www.w3.org/TR/2001/REC-SVG-20010904/DTD/svg10.dtd">
<svg version="1.0" xmlns="http://www.w3.org/2000/svg"
 width="100.000000pt" height="100.000000pt" viewBox="0 0 100.000000 100.000000"
 preserveAspectRatio="xMidYMid meet">
<metadata>
Created by potrace 1.11, written by Peter Selinger 2001-2013
</metadata>
<g transform="translate(0.000000,100.000000) scale(0.100000,-0.100000)"
fill="#000000" stroke="none">
<path d="M64 498 l1 -443 135 0 135 0 3 178 2 177 34 0 c38 0 79 -34 106 -85
8 -16 45 -83 82 -150 l66 -120 151 0 c83 0 151 1 151 2 0 2 -14 29 -31 60 -18
32 -51 96 -75 143 -45 92 -112 170 -144 170 -11 0 -20 6 -20 14 0 8 8 13 18
11 40 -6 127 57 158 115 22 42 29 172 11 204 -6 12 -10 24 -9 29 1 4 -3 7 -9
7 -5 0 -8 4 -5 9 10 15 -74 80 -118 92 -74 20 -88 21 -367 26 l-277 5 2 -444z
m501 235 c42 -42 32 -113 -20 -140 -21 -11 -34 -13 -120 -14 -92 -2 -85 -9
-85 84 0 46 3 86 6 90 3 3 48 6 100 5 86 0 95 -2 119 -25z"/>
</g>
</svg>
